<mxfile host="www.draw.io" modified="2019-11-28T02:10:42.653Z" agent="Mozilla/5.0 (Macintosh; Intel Mac OS X 10_14_6) AppleWebKit/537.36 (KHTML, like Gecko) Chrome/78.0.3904.108 Safari/537.36" etag="daNpoWx_EMffRoyh8bvK" version="12.3.2" type="github" pages="1">
  <diagram id="N6jfTuuV_OOUOqT9ahVb" name="Page-1">
    <mxGraphModel dx="919" dy="490" grid="1" gridSize="10" guides="1" tooltips="1" connect="1" arrows="1" fold="1" page="1" pageScale="1" pageWidth="850" pageHeight="1100" math="0" shadow="1">
      <root>
        <mxCell id="0"/>
        <mxCell id="1" parent="0"/>
        <mxCell id="zFNlPR5UEYDTPR6xKDe3-31" value="EmployeeSSN" style="rounded=0;whiteSpace=wrap;html=1;fontStyle=4" parent="1" vertex="1">
          <mxGeometry x="140" y="180" width="90" height="40" as="geometry"/>
        </mxCell>
        <mxCell id="zFNlPR5UEYDTPR6xKDe3-32" value="EmployeeId" style="rounded=0;whiteSpace=wrap;html=1;" parent="1" vertex="1">
          <mxGeometry x="230" y="180" width="90" height="40" as="geometry"/>
        </mxCell>
        <mxCell id="zFNlPR5UEYDTPR6xKDe3-33" value="FName" style="rounded=0;whiteSpace=wrap;html=1;" parent="1" vertex="1">
          <mxGeometry x="320" y="180" width="90" height="40" as="geometry"/>
        </mxCell>
        <mxCell id="zFNlPR5UEYDTPR6xKDe3-34" value="MInit" style="rounded=0;whiteSpace=wrap;html=1;" parent="1" vertex="1">
          <mxGeometry x="410" y="180" width="90" height="40" as="geometry"/>
        </mxCell>
        <mxCell id="zFNlPR5UEYDTPR6xKDe3-35" value="LName" style="rounded=0;whiteSpace=wrap;html=1;" parent="1" vertex="1">
          <mxGeometry x="500" y="180" width="90" height="40" as="geometry"/>
        </mxCell>
        <mxCell id="zFNlPR5UEYDTPR6xKDe3-36" value="Email" style="rounded=0;whiteSpace=wrap;html=1;" parent="1" vertex="1">
          <mxGeometry x="590" y="180" width="90" height="40" as="geometry"/>
        </mxCell>
        <mxCell id="zFNlPR5UEYDTPR6xKDe3-37" value="EmployeeSSN" style="rounded=0;whiteSpace=wrap;html=1;fontStyle=4" parent="1" vertex="1">
          <mxGeometry x="140" y="280" width="90" height="40" as="geometry"/>
        </mxCell>
        <mxCell id="zFNlPR5UEYDTPR6xKDe3-38" value="PartnerId" style="rounded=0;whiteSpace=wrap;html=1;fontStyle=4" parent="1" vertex="1">
          <mxGeometry x="140" y="370" width="90" height="40" as="geometry"/>
        </mxCell>
        <mxCell id="zFNlPR5UEYDTPR6xKDe3-39" value="Email" style="rounded=0;whiteSpace=wrap;html=1;" parent="1" vertex="1">
          <mxGeometry x="230" y="370" width="90" height="40" as="geometry"/>
        </mxCell>
        <mxCell id="zFNlPR5UEYDTPR6xKDe3-40" value="PhoneNo" style="rounded=0;whiteSpace=wrap;html=1;" parent="1" vertex="1">
          <mxGeometry x="320" y="370" width="90" height="40" as="geometry"/>
        </mxCell>
        <mxCell id="zFNlPR5UEYDTPR6xKDe3-41" value="CompanyName" style="rounded=0;whiteSpace=wrap;html=1;" parent="1" vertex="1">
          <mxGeometry x="410" y="370" width="100" height="40" as="geometry"/>
        </mxCell>
        <mxCell id="zFNlPR5UEYDTPR6xKDe3-42" value="CompanyAddress" style="rounded=0;whiteSpace=wrap;html=1;" parent="1" vertex="1">
          <mxGeometry x="510" y="370" width="110" height="40" as="geometry"/>
        </mxCell>
        <mxCell id="zFNlPR5UEYDTPR6xKDe3-48" value="&lt;b&gt;&lt;font style=&quot;font-size: 14px&quot;&gt;EMPLOYEE&lt;/font&gt;&lt;/b&gt;" style="text;html=1;strokeColor=none;fillColor=none;align=center;verticalAlign=middle;whiteSpace=wrap;rounded=0;" parent="1" vertex="1">
          <mxGeometry x="130" y="160" width="100" height="20" as="geometry"/>
        </mxCell>
        <mxCell id="zFNlPR5UEYDTPR6xKDe3-49" value="&lt;b&gt;&lt;font style=&quot;font-size: 14px&quot;&gt;MANAGER&lt;/font&gt;&lt;/b&gt;" style="text;html=1;strokeColor=none;fillColor=none;align=center;verticalAlign=middle;whiteSpace=wrap;rounded=0;" parent="1" vertex="1">
          <mxGeometry x="130" y="260" width="100" height="20" as="geometry"/>
        </mxCell>
        <mxCell id="zFNlPR5UEYDTPR6xKDe3-50" value="EmployeeSSN" style="rounded=0;whiteSpace=wrap;html=1;fontStyle=4" parent="1" vertex="1">
          <mxGeometry x="300" y="280" width="90" height="40" as="geometry"/>
        </mxCell>
        <mxCell id="zFNlPR5UEYDTPR6xKDe3-51" value="&lt;b&gt;&lt;font style=&quot;font-size: 14px&quot;&gt;CORPORATE&lt;/font&gt;&lt;/b&gt;" style="text;html=1;strokeColor=none;fillColor=none;align=center;verticalAlign=middle;whiteSpace=wrap;rounded=0;" parent="1" vertex="1">
          <mxGeometry x="295" y="260" width="100" height="20" as="geometry"/>
        </mxCell>
        <mxCell id="zFNlPR5UEYDTPR6xKDe3-52" value="EmployeeSSN" style="rounded=0;whiteSpace=wrap;html=1;fontStyle=4" parent="1" vertex="1">
          <mxGeometry x="460" y="280" width="90" height="40" as="geometry"/>
        </mxCell>
        <mxCell id="zFNlPR5UEYDTPR6xKDe3-53" value="&lt;b&gt;&lt;font style=&quot;font-size: 14px&quot;&gt;ON_SITE&lt;/font&gt;&lt;/b&gt;" style="text;html=1;strokeColor=none;fillColor=none;align=center;verticalAlign=middle;whiteSpace=wrap;rounded=0;" parent="1" vertex="1">
          <mxGeometry x="440" y="260" width="100" height="20" as="geometry"/>
        </mxCell>
        <mxCell id="zFNlPR5UEYDTPR6xKDe3-54" value="" style="endArrow=classic;html=1;entryX=0;entryY=0.5;entryDx=0;entryDy=0;exitX=0;exitY=0.25;exitDx=0;exitDy=0;" parent="1" source="zFNlPR5UEYDTPR6xKDe3-37" target="zFNlPR5UEYDTPR6xKDe3-31" edge="1">
          <mxGeometry width="50" height="50" relative="1" as="geometry">
            <mxPoint x="140" y="281" as="sourcePoint"/>
            <mxPoint x="208" y="220" as="targetPoint"/>
            <Array as="points">
              <mxPoint x="120" y="290"/>
              <mxPoint x="120" y="200"/>
            </Array>
          </mxGeometry>
        </mxCell>
        <mxCell id="zFNlPR5UEYDTPR6xKDe3-58" value="" style="endArrow=classic;html=1;entryX=0.678;entryY=0.975;entryDx=0;entryDy=0;entryPerimeter=0;" parent="1" target="zFNlPR5UEYDTPR6xKDe3-31" edge="1">
          <mxGeometry width="50" height="50" relative="1" as="geometry">
            <mxPoint x="200" y="250" as="sourcePoint"/>
            <mxPoint x="200" y="230" as="targetPoint"/>
            <Array as="points"/>
          </mxGeometry>
        </mxCell>
        <mxCell id="zFNlPR5UEYDTPR6xKDe3-60" value="" style="endArrow=none;html=1;entryX=0;entryY=0.5;entryDx=0;entryDy=0;" parent="1" target="zFNlPR5UEYDTPR6xKDe3-50" edge="1">
          <mxGeometry width="50" height="50" relative="1" as="geometry">
            <mxPoint x="200" y="250" as="sourcePoint"/>
            <mxPoint x="280" y="300" as="targetPoint"/>
            <Array as="points">
              <mxPoint x="223" y="250"/>
              <mxPoint x="280" y="250"/>
              <mxPoint x="280" y="300"/>
            </Array>
          </mxGeometry>
        </mxCell>
        <mxCell id="zFNlPR5UEYDTPR6xKDe3-61" value="" style="endArrow=classic;html=1;" parent="1" edge="1">
          <mxGeometry width="50" height="50" relative="1" as="geometry">
            <mxPoint x="210" y="240" as="sourcePoint"/>
            <mxPoint x="210" y="221" as="targetPoint"/>
            <Array as="points"/>
          </mxGeometry>
        </mxCell>
        <mxCell id="zFNlPR5UEYDTPR6xKDe3-62" value="" style="endArrow=none;html=1;entryX=0;entryY=0.5;entryDx=0;entryDy=0;" parent="1" target="zFNlPR5UEYDTPR6xKDe3-52" edge="1">
          <mxGeometry width="50" height="50" relative="1" as="geometry">
            <mxPoint x="210" y="240" as="sourcePoint"/>
            <mxPoint x="310" y="290" as="targetPoint"/>
            <Array as="points">
              <mxPoint x="420" y="240"/>
              <mxPoint x="440" y="240"/>
              <mxPoint x="440" y="300"/>
            </Array>
          </mxGeometry>
        </mxCell>
        <mxCell id="zFNlPR5UEYDTPR6xKDe3-65" value="PartnerId" style="rounded=0;whiteSpace=wrap;html=1;fontStyle=4" parent="1" vertex="1">
          <mxGeometry x="140" y="480" width="90" height="40" as="geometry"/>
        </mxCell>
        <mxCell id="zFNlPR5UEYDTPR6xKDe3-66" value="MgrSSN" style="rounded=0;whiteSpace=wrap;html=1;fontStyle=4" parent="1" vertex="1">
          <mxGeometry x="230" y="480" width="90" height="40" as="geometry"/>
        </mxCell>
        <mxCell id="zFNlPR5UEYDTPR6xKDe3-68" value="ContractStart" style="rounded=0;whiteSpace=wrap;html=1;" parent="1" vertex="1">
          <mxGeometry x="320" y="480" width="100" height="40" as="geometry"/>
        </mxCell>
        <mxCell id="zFNlPR5UEYDTPR6xKDe3-69" value="ContractEnd" style="rounded=0;whiteSpace=wrap;html=1;" parent="1" vertex="1">
          <mxGeometry x="420" y="480" width="110" height="40" as="geometry"/>
        </mxCell>
        <mxCell id="zFNlPR5UEYDTPR6xKDe3-70" value="" style="endArrow=classic;html=1;entryX=-0.011;entryY=0.925;entryDx=0;entryDy=0;entryPerimeter=0;" parent="1" target="zFNlPR5UEYDTPR6xKDe3-37" edge="1">
          <mxGeometry width="50" height="50" relative="1" as="geometry">
            <mxPoint x="275" y="520" as="sourcePoint"/>
            <mxPoint x="150" y="210" as="targetPoint"/>
            <Array as="points">
              <mxPoint x="275" y="540"/>
              <mxPoint x="120" y="540"/>
              <mxPoint x="120" y="317"/>
            </Array>
          </mxGeometry>
        </mxCell>
        <mxCell id="zFNlPR5UEYDTPR6xKDe3-71" value="" style="endArrow=classic;html=1;entryX=0.5;entryY=1;entryDx=0;entryDy=0;exitX=0;exitY=0.5;exitDx=0;exitDy=0;" parent="1" source="zFNlPR5UEYDTPR6xKDe3-65" target="zFNlPR5UEYDTPR6xKDe3-38" edge="1">
          <mxGeometry width="50" height="50" relative="1" as="geometry">
            <mxPoint x="40" y="490" as="sourcePoint"/>
            <mxPoint x="90" y="440" as="targetPoint"/>
            <Array as="points">
              <mxPoint x="130" y="500"/>
              <mxPoint x="130" y="430"/>
              <mxPoint x="185" y="430"/>
            </Array>
          </mxGeometry>
        </mxCell>
        <mxCell id="zFNlPR5UEYDTPR6xKDe3-72" value="&lt;b&gt;&lt;font style=&quot;font-size: 14px&quot;&gt;PARTNER_COMPANY&lt;/font&gt;&lt;/b&gt;" style="text;html=1;strokeColor=none;fillColor=none;align=center;verticalAlign=middle;whiteSpace=wrap;rounded=0;" parent="1" vertex="1">
          <mxGeometry x="130" y="350" width="160" height="20" as="geometry"/>
        </mxCell>
        <mxCell id="zFNlPR5UEYDTPR6xKDe3-73" value="&lt;b&gt;&lt;font style=&quot;font-size: 14px&quot;&gt;DEALS_WITH&lt;/font&gt;&lt;/b&gt;" style="text;html=1;strokeColor=none;fillColor=none;align=center;verticalAlign=middle;whiteSpace=wrap;rounded=0;" parent="1" vertex="1">
          <mxGeometry x="135" y="460" width="100" height="20" as="geometry"/>
        </mxCell>
        <mxCell id="zFNlPR5UEYDTPR6xKDe3-74" value="LocationId" style="rounded=0;whiteSpace=wrap;html=1;fontStyle=4" parent="1" vertex="1">
          <mxGeometry x="140" y="590" width="90" height="40" as="geometry"/>
        </mxCell>
        <mxCell id="zFNlPR5UEYDTPR6xKDe3-75" value="MgrSSN" style="rounded=0;whiteSpace=wrap;html=1;" parent="1" vertex="1">
          <mxGeometry x="230" y="590" width="90" height="40" as="geometry"/>
        </mxCell>
        <mxCell id="zFNlPR5UEYDTPR6xKDe3-76" value="ESSN" style="rounded=0;whiteSpace=wrap;html=1;" parent="1" vertex="1">
          <mxGeometry x="320" y="590" width="70" height="40" as="geometry"/>
        </mxCell>
        <mxCell id="zFNlPR5UEYDTPR6xKDe3-77" value="Name" style="rounded=0;whiteSpace=wrap;html=1;" parent="1" vertex="1">
          <mxGeometry x="390" y="590" width="70" height="40" as="geometry"/>
        </mxCell>
        <mxCell id="zFNlPR5UEYDTPR6xKDe3-78" value="LocationAddress" style="rounded=0;whiteSpace=wrap;html=1;" parent="1" vertex="1">
          <mxGeometry x="460" y="590" width="110" height="40" as="geometry"/>
        </mxCell>
        <mxCell id="zFNlPR5UEYDTPR6xKDe3-80" value="&lt;b&gt;&lt;font style=&quot;font-size: 14px&quot;&gt;LOCATION&lt;/font&gt;&lt;/b&gt;" style="text;html=1;strokeColor=none;fillColor=none;align=center;verticalAlign=middle;whiteSpace=wrap;rounded=0;" parent="1" vertex="1">
          <mxGeometry x="125" y="570" width="100" height="20" as="geometry"/>
        </mxCell>
        <mxCell id="zFNlPR5UEYDTPR6xKDe3-81" value="PickupDate" style="rounded=0;whiteSpace=wrap;html=1;" parent="1" vertex="1">
          <mxGeometry x="570" y="590" width="80" height="40" as="geometry"/>
        </mxCell>
        <mxCell id="zFNlPR5UEYDTPR6xKDe3-82" value="PickupTime" style="rounded=0;whiteSpace=wrap;html=1;" parent="1" vertex="1">
          <mxGeometry x="650" y="590" width="80" height="40" as="geometry"/>
        </mxCell>
        <mxCell id="zFNlPR5UEYDTPR6xKDe3-83" value="RecordWeight" style="rounded=0;whiteSpace=wrap;html=1;" parent="1" vertex="1">
          <mxGeometry x="730" y="590" width="90" height="40" as="geometry"/>
        </mxCell>
        <mxCell id="zFNlPR5UEYDTPR6xKDe3-86" value="LocationId" style="rounded=0;whiteSpace=wrap;html=1;fontStyle=4" parent="1" vertex="1">
          <mxGeometry x="138" y="690" width="110" height="40" as="geometry"/>
        </mxCell>
        <mxCell id="zFNlPR5UEYDTPR6xKDe3-87" value="&lt;b&gt;&lt;font style=&quot;font-size: 14px&quot;&gt;COMMUNITY&lt;/font&gt;&lt;/b&gt;" style="text;html=1;strokeColor=none;fillColor=none;align=center;verticalAlign=middle;whiteSpace=wrap;rounded=0;" parent="1" vertex="1">
          <mxGeometry x="130" y="670" width="100" height="20" as="geometry"/>
        </mxCell>
        <mxCell id="zFNlPR5UEYDTPR6xKDe3-88" value="LocationId" style="rounded=0;whiteSpace=wrap;html=1;fontStyle=4" parent="1" vertex="1">
          <mxGeometry x="326" y="690" width="142" height="40" as="geometry"/>
        </mxCell>
        <mxCell id="zFNlPR5UEYDTPR6xKDe3-89" value="&lt;span style=&quot;font-size: 14px&quot;&gt;&lt;b&gt;SCHOOL_COLLEGES&lt;/b&gt;&lt;/span&gt;" style="text;html=1;strokeColor=none;fillColor=none;align=center;verticalAlign=middle;whiteSpace=wrap;rounded=0;" parent="1" vertex="1">
          <mxGeometry x="346" y="670" width="100" height="20" as="geometry"/>
        </mxCell>
        <mxCell id="zFNlPR5UEYDTPR6xKDe3-90" value="LocationId" style="rounded=0;whiteSpace=wrap;html=1;fontStyle=4" parent="1" vertex="1">
          <mxGeometry x="551" y="690" width="110" height="40" as="geometry"/>
        </mxCell>
        <mxCell id="zFNlPR5UEYDTPR6xKDe3-91" value="&lt;b&gt;&lt;font style=&quot;font-size: 14px&quot;&gt;BUSINESS&lt;/font&gt;&lt;/b&gt;" style="text;html=1;strokeColor=none;fillColor=none;align=center;verticalAlign=middle;whiteSpace=wrap;rounded=0;" parent="1" vertex="1">
          <mxGeometry x="536" y="670" width="100" height="20" as="geometry"/>
        </mxCell>
        <mxCell id="zFNlPR5UEYDTPR6xKDe3-92" value="" style="endArrow=classic;html=1;entryX=0;entryY=0.75;entryDx=0;entryDy=0;exitX=0;exitY=0.75;exitDx=0;exitDy=0;" parent="1" source="zFNlPR5UEYDTPR6xKDe3-86" target="zFNlPR5UEYDTPR6xKDe3-74" edge="1">
          <mxGeometry width="50" height="50" relative="1" as="geometry">
            <mxPoint x="60" y="730" as="sourcePoint"/>
            <mxPoint x="110" y="680" as="targetPoint"/>
            <Array as="points">
              <mxPoint x="120" y="720"/>
              <mxPoint x="120" y="620"/>
            </Array>
          </mxGeometry>
        </mxCell>
        <mxCell id="zFNlPR5UEYDTPR6xKDe3-93" value="" style="endArrow=classic;html=1;entryX=0.25;entryY=1;entryDx=0;entryDy=0;exitX=0;exitY=0.75;exitDx=0;exitDy=0;" parent="1" source="zFNlPR5UEYDTPR6xKDe3-88" target="zFNlPR5UEYDTPR6xKDe3-74" edge="1">
          <mxGeometry width="50" height="50" relative="1" as="geometry">
            <mxPoint x="270" y="710" as="sourcePoint"/>
            <mxPoint x="320" y="660" as="targetPoint"/>
            <Array as="points">
              <mxPoint x="310" y="720"/>
              <mxPoint x="310" y="660"/>
              <mxPoint x="163" y="660"/>
            </Array>
          </mxGeometry>
        </mxCell>
        <mxCell id="zFNlPR5UEYDTPR6xKDe3-94" value="" style="endArrow=classic;html=1;entryX=0.75;entryY=1;entryDx=0;entryDy=0;exitX=0;exitY=0.5;exitDx=0;exitDy=0;" parent="1" source="zFNlPR5UEYDTPR6xKDe3-90" target="zFNlPR5UEYDTPR6xKDe3-74" edge="1">
          <mxGeometry width="50" height="50" relative="1" as="geometry">
            <mxPoint x="200" y="690" as="sourcePoint"/>
            <mxPoint x="250" y="640" as="targetPoint"/>
            <Array as="points">
              <mxPoint x="520" y="710"/>
              <mxPoint x="520" y="650"/>
              <mxPoint x="208" y="650"/>
            </Array>
          </mxGeometry>
        </mxCell>
        <mxCell id="zFNlPR5UEYDTPR6xKDe3-95" value="LicensePlateNo" style="rounded=0;whiteSpace=wrap;html=1;fontStyle=4" parent="1" vertex="1">
          <mxGeometry x="145" y="790" width="105" height="40" as="geometry"/>
        </mxCell>
        <mxCell id="zFNlPR5UEYDTPR6xKDe3-96" value="Axle" style="rounded=0;whiteSpace=wrap;html=1;" parent="1" vertex="1">
          <mxGeometry x="250" y="790" width="90" height="40" as="geometry"/>
        </mxCell>
        <mxCell id="zFNlPR5UEYDTPR6xKDe3-97" value="VIN" style="rounded=0;whiteSpace=wrap;html=1;" parent="1" vertex="1">
          <mxGeometry x="335" y="790" width="70" height="40" as="geometry"/>
        </mxCell>
        <mxCell id="zFNlPR5UEYDTPR6xKDe3-98" value="TagId" style="rounded=0;whiteSpace=wrap;html=1;" parent="1" vertex="1">
          <mxGeometry x="405" y="790" width="70" height="40" as="geometry"/>
        </mxCell>
        <mxCell id="zFNlPR5UEYDTPR6xKDe3-100" value="&lt;b&gt;&lt;font style=&quot;font-size: 14px&quot;&gt;VEHICLE&lt;/font&gt;&lt;/b&gt;" style="text;html=1;strokeColor=none;fillColor=none;align=center;verticalAlign=middle;whiteSpace=wrap;rounded=0;" parent="1" vertex="1">
          <mxGeometry x="125" y="770" width="100" height="20" as="geometry"/>
        </mxCell>
        <mxCell id="zFNlPR5UEYDTPR6xKDe3-101" value="ESSN" style="rounded=0;whiteSpace=wrap;html=1;" parent="1" vertex="1">
          <mxGeometry x="475" y="790" width="70" height="40" as="geometry"/>
        </mxCell>
        <mxCell id="zFNlPR5UEYDTPR6xKDe3-109" value="" style="edgeStyle=orthogonalEdgeStyle;rounded=0;orthogonalLoop=1;jettySize=auto;html=1;" parent="1" source="zFNlPR5UEYDTPR6xKDe3-106" target="zFNlPR5UEYDTPR6xKDe3-95" edge="1">
          <mxGeometry relative="1" as="geometry"/>
        </mxCell>
        <mxCell id="zFNlPR5UEYDTPR6xKDe3-106" value="LicensePlateNo" style="rounded=0;whiteSpace=wrap;html=1;fontStyle=4" parent="1" vertex="1">
          <mxGeometry x="145" y="880" width="105" height="40" as="geometry"/>
        </mxCell>
        <mxCell id="zFNlPR5UEYDTPR6xKDe3-107" value="Color" style="rounded=0;whiteSpace=wrap;html=1;" parent="1" vertex="1">
          <mxGeometry x="250" y="880" width="90" height="40" as="geometry"/>
        </mxCell>
        <mxCell id="zFNlPR5UEYDTPR6xKDe3-108" value="&lt;b&gt;&lt;font style=&quot;font-size: 14px&quot;&gt;COLOR&lt;/font&gt;&lt;/b&gt;" style="text;html=1;strokeColor=none;fillColor=none;align=center;verticalAlign=middle;whiteSpace=wrap;rounded=0;" parent="1" vertex="1">
          <mxGeometry x="118" y="860" width="100" height="20" as="geometry"/>
        </mxCell>
        <mxCell id="zFNlPR5UEYDTPR6xKDe3-110" value="&lt;b&gt;&lt;font style=&quot;font-size: 24px&quot;&gt;BLOCK O PAPER MANAGEMENT SERVICE&lt;/font&gt;&lt;/b&gt;" style="text;html=1;strokeColor=none;fillColor=none;align=center;verticalAlign=middle;whiteSpace=wrap;rounded=0;" parent="1" vertex="1">
          <mxGeometry x="140" y="70" width="700" height="70" as="geometry"/>
        </mxCell>
      </root>
    </mxGraphModel>
  </diagram>
</mxfile>
